<?xml version="1.0" standalone="no"?>
<!DOCTYPE svg PUBLIC "-//W3C//DTD SVG 20010904//EN"
 "http://www.w3.org/TR/2001/REC-SVG-20010904/DTD/svg10.dtd">
<svg version="1.0" xmlns="http://www.w3.org/2000/svg"
 width="700.000000pt" height="700.000000pt" viewBox="0 0 700.000000 700.000000"
 preserveAspectRatio="xMidYMid meet">
<metadata>
Created by potrace 1.14, written by Peter Selinger 2001-2017
</metadata>
<g transform="translate(0.000000,700.000000) scale(0.100000,-0.100000)"
fill="#000000" stroke="none">
<path d="M2257 5370 c-118 -45 -224 -163 -321 -357 -72 -145 -144 -384 -163
-543 -6 -55 -11 -61 -71 -77 -92 -26 -104 -30 -226 -75 -538 -200 -1003 -611
-1242 -1098 -72 -147 -133 -309 -150 -399 -1 -8 -10 -46 -18 -85 -20 -91 -25
-134 -30 -227 l-5 -76 48 -37 c50 -37 201 -138 259 -172 40 -23 65 -73 99
-199 27 -101 38 -291 21 -383 l-10 -52 -41 0 c-117 0 -173 -117 -120 -253 40
-103 161 -252 288 -354 220 -178 617 -363 1010 -473 41 -12 284 -69 315 -75
14 -2 48 -9 77 -14 29 -6 74 -13 100 -17 26 -3 50 -8 53 -9 3 -2 37 -6 75 -10
39 -3 77 -8 85 -10 93 -25 680 -24 744 1 8 3 52 -15 98 -39 179 -96 466 -205
613 -231 228 -42 277 -48 408 -48 126 0 170 16 187 66 20 62 -18 135 -202 383
-54 73 -98 137 -98 142 0 5 10 13 23 17 28 8 311 149 391 193 204 114 534 335
621 414 45 41 52 40 86 -10 31 -46 83 -115 104 -139 6 -6 30 -36 55 -65 24
-30 92 -102 150 -160 439 -444 940 -672 1239 -564 200 73 295 222 241 380 -19
56 -36 82 -110 165 -36 40 -83 98 -106 129 -197 271 -411 791 -460 1115 -3 22
-7 43 -9 46 -11 18 -15 185 -6 231 6 30 13 70 16 89 11 64 66 264 108 390 22
69 41 127 42 130 3 17 22 69 62 170 120 309 234 522 343 640 44 48 124 160
115 160 -3 0 -1 9 5 19 5 11 12 46 14 77 5 84 -24 161 -86 229 -210 230 -550
184 -964 -131 -177 -135 -447 -407 -579 -584 -111 -150 -128 -169 -138 -163
-7 4 -47 34 -91 67 -61 48 -84 73 -107 118 -61 120 -175 299 -266 418 -117
153 -342 391 -472 500 -29 25 -59 50 -65 55 -36 34 -167 133 -266 202 -428
299 -921 512 -1340 579 -14 2 -41 7 -60 10 -19 3 -77 7 -130 9 -74 3 -105 -1
-143 -15z"/>
</g>
</svg>
